<svg xmlns="http://www.w3.org/2000/svg" viewBox="0 0 340.16 133.19"><defs><style>.cls-1{fill:#585857;}.cls-2{fill:#888787;}.cls-3{fill:#1d1d1b;}</style></defs><title>TPR_LogoNoStrapline_MONO_Positive</title><g id="Type"><path class="cls-1" d="M150.94,22h-8.66V17.51h22.16V22h-8.66V44.82h-4.84Z"/><path class="cls-1" d="M168.72,16.34h4.72V27.42a7.42,7.42,0,0,1,6.44-3.63c4.64,0,7.33,3.12,7.33,7.92V44.82h-4.72V33.12c0-3.2-1.6-5-4.4-5s-4.65,1.91-4.65,5.11V44.82h-4.72Z"/><path class="cls-1" d="M191.78,34.6v-.08c0-5.89,4.17-10.73,10.06-10.73,6.55,0,9.87,5.15,9.87,11.08,0,.43,0,.86-.08,1.33H196.5a5.74,5.74,0,0,0,5.92,5.22A7.46,7.46,0,0,0,208,39l2.77,2.45a10.39,10.39,0,0,1-8.42,3.87A10.28,10.28,0,0,1,191.78,34.6ZM207,33.08c-.31-3-2.11-5.43-5.23-5.43-2.89,0-4.91,2.23-5.34,5.43Z"/><path class="cls-1" d="M144.23,52H155c6.36,0,10.37,3.63,10.37,9.13v.08c0,6.12-4.91,9.32-10.92,9.32H149v8.78h-4.8Zm10.38,14.2c3.63,0,5.89-2,5.89-4.88v-.07c0-3.2-2.3-4.88-5.89-4.88H149v9.83Z"/><path class="cls-1" d="M168.42,69.05V69c0-5.89,4.17-10.73,10.06-10.73,6.56,0,9.87,5.15,9.87,11.08,0,.43,0,.86-.08,1.33H173.14a5.75,5.75,0,0,0,5.93,5.22,7.48,7.48,0,0,0,5.58-2.45l2.77,2.45A10.44,10.44,0,0,1,179,79.74,10.28,10.28,0,0,1,168.42,69.05Zm15.25-1.52c-.31-3-2.1-5.43-5.23-5.43-2.88,0-4.91,2.23-5.34,5.43Z"/><path class="cls-1" d="M193.11,58.67h4.72v3.2a7.42,7.42,0,0,1,6.44-3.63c4.64,0,7.33,3.12,7.33,7.92V79.27h-4.72V67.57c0-3.2-1.6-5-4.41-5s-4.64,1.91-4.64,5.11V79.27h-4.72Z"/><path class="cls-1" d="M215.62,76.58l2.1-3.2a11.64,11.64,0,0,0,6.75,2.53c2,0,3.2-.86,3.2-2.22v-.08c0-1.6-2.18-2.14-4.6-2.89-3-.85-6.44-2.1-6.44-6V64.6c0-3.9,3.24-6.28,7.33-6.28a14.29,14.29,0,0,1,7.57,2.34L229.66,64a12,12,0,0,0-5.81-2c-1.84,0-2.89.86-2.89,2.07v.08c0,1.48,2.22,2.11,4.64,2.89,3,.93,6.4,2.3,6.4,6v.08c0,4.33-3.35,6.48-7.64,6.48A14.51,14.51,0,0,1,215.62,76.58Z"/><path class="cls-1" d="M236.88,51H242v4.49h-5.07Zm.19,7.65h4.72v20.6h-4.72Z"/><path class="cls-1" d="M246.82,69.09V69a11,11,0,0,1,22-.08V69a10.77,10.77,0,0,1-11,10.73A10.66,10.66,0,0,1,246.82,69.09Zm17.25,0V69a6.37,6.37,0,0,0-6.32-6.63c-3.79,0-6.21,3-6.21,6.55V69a6.38,6.38,0,0,0,6.28,6.63C261.65,75.64,264.07,72.64,264.07,69.09Z"/><path class="cls-1" d="M273.58,58.67h4.72v3.2a7.42,7.42,0,0,1,6.44-3.63c4.64,0,7.33,3.12,7.33,7.92V79.27h-4.72V67.57c0-3.2-1.6-5-4.41-5s-4.64,1.91-4.64,5.11V79.27h-4.72Z"/><path class="cls-1" d="M296.09,76.58l2.1-3.2a11.64,11.64,0,0,0,6.75,2.53c2,0,3.2-.86,3.2-2.22v-.08c0-1.6-2.18-2.14-4.6-2.89-3-.85-6.44-2.1-6.44-6V64.6c0-3.9,3.24-6.28,7.34-6.28A14.28,14.28,0,0,1,312,60.66L310.13,64a12,12,0,0,0-5.81-2c-1.84,0-2.89.86-2.89,2.07v.08c0,1.48,2.22,2.11,4.64,2.89,3,.93,6.4,2.3,6.4,6v.08c0,4.33-3.35,6.48-7.64,6.48A14.51,14.51,0,0,1,296.09,76.58Z"/><path class="cls-1" d="M144.23,86.61H156.4c3.43,0,6.13,1,7.88,2.74a8.22,8.22,0,0,1,2.26,5.89v.07c0,4.49-2.69,7.18-6.51,8.27l7.37,10.34h-5.65L155,104.4h-6v9.52h-4.8Zm11.82,13.54c3.43,0,5.62-1.79,5.62-4.56v-.08c0-2.93-2.11-4.53-5.66-4.53h-7v9.17Z"/><path class="cls-1" d="M170.36,103.7v-.08c0-5.89,4.18-10.72,10.07-10.72C187,92.9,190.3,98,190.3,104c0,.43,0,.86-.08,1.33H175.08a5.75,5.75,0,0,0,5.93,5.23,7.47,7.47,0,0,0,5.58-2.46l2.77,2.46a10.41,10.41,0,0,1-8.42,3.86A10.28,10.28,0,0,1,170.36,103.7Zm15.26-1.52c-.32-3-2.11-5.42-5.23-5.42-2.89,0-4.92,2.22-5.35,5.42Z"/><path class="cls-1" d="M195,117.78l1.75-3.55a13.4,13.4,0,0,0,7.34,2.19c4.21,0,6.51-2.19,6.51-6.32v-1.6a8.64,8.64,0,0,1-7.26,3.78,9.26,9.26,0,0,1-9.36-9.63v-.08a9.28,9.28,0,0,1,9.36-9.67,8.86,8.86,0,0,1,7.22,3.51V93.32h4.72v16.39c0,3.47-.9,6-2.61,7.76-1.88,1.87-4.76,2.77-8.47,2.77A17.72,17.72,0,0,1,195,117.78Zm15.64-15.13v-.08a5.77,5.77,0,0,0-6-5.7,5.57,5.57,0,0,0-5.85,5.66v.08a5.61,5.61,0,0,0,5.85,5.69A5.78,5.78,0,0,0,210.66,102.65Z"/><path class="cls-1" d="M221,106.43V93.32h4.72V105c0,3.2,1.59,5,4.4,5s4.65-1.91,4.65-5.11V93.32h4.72v20.6h-4.72v-3.2a7.42,7.42,0,0,1-6.44,3.63C223.65,114.35,221,111.23,221,106.43Z"/><path class="cls-1" d="M245.65,85.44h4.72v28.48h-4.72Z"/><path class="cls-1" d="M269.13,113.92v-2.53a8.34,8.34,0,0,1-6.67,3c-3.9,0-7.33-2.22-7.33-6.36v-.08c0-4.56,3.55-6.74,8.34-6.74a17.57,17.57,0,0,1,5.7.85v-.39c0-2.84-1.8-4.4-5.07-4.4a14.33,14.33,0,0,0-5.89,1.28l-1.29-3.78A17.59,17.59,0,0,1,264.76,93c6.09,0,9.05,3.2,9.05,8.7v12.21Zm.12-8.62a13.46,13.46,0,0,0-4.72-.82c-3,0-4.72,1.21-4.72,3.2v.08c0,1.95,1.75,3,4,3,3.12,0,5.46-1.76,5.46-4.33Z"/><path class="cls-1" d="M280.21,108.23V97.38H277.6V93.32h2.61V87.67h4.72v5.65h5.54v4.06h-5.54v10.1a2.25,2.25,0,0,0,2.54,2.58,6.29,6.29,0,0,0,2.92-.7v3.86a8.27,8.27,0,0,1-4.25,1C282.67,114.27,280.21,112.75,280.21,108.23Z"/><path class="cls-1" d="M293.52,103.74v-.08a11,11,0,0,1,22-.08v.08a10.77,10.77,0,0,1-11,10.73A10.65,10.65,0,0,1,293.52,103.74Zm17.24,0v-.08A6.36,6.36,0,0,0,304.44,97c-3.78,0-6.2,3-6.2,6.55v.08a6.38,6.38,0,0,0,6.28,6.63C308.34,110.29,310.76,107.29,310.76,103.74Z"/><path class="cls-1" d="M320.28,93.32H325V98c1.29-3.09,3.67-5.19,7.3-5v5H332c-4.14,0-7,2.69-7,8.15v7.84h-4.71Z"/></g><g id="Symbol"><path class="cls-2" d="M68.2,5.41a60.32,60.32,0,0,0-46.4,98.88l8.59-8.62a48.24,48.24,0,1,1,7.27,7.39h0l-.19-.15L29,111.52l.12.11h0A60.32,60.32,0,1,0,68.2,5.41Z"/><path class="cls-3" d="M68.2,38.68A27.06,27.06,0,1,0,95.25,65.73,27.05,27.05,0,0,0,68.2,38.68Zm0,45.69A18.64,18.64,0,1,1,86.84,65.73,18.63,18.63,0,0,1,68.2,84.37Z"/><path class="cls-3" d="M19.93,106.17a4.1,4.1,0,0,0,0,5.77l1.53,1.53a4.1,4.1,0,0,0,5.77,0l23.7-23.64a27.21,27.21,0,0,1-7.4-7.34Z"/></g></svg>